# xmcd
#
# Track frame offsets:
#	150
#	16901
#	35161
#	60807
#	78789
#	93507
#	114030
#	131028
#	151619
#	170017
#	183612
#
# Disc length: 2707 seconds
#
# Revision: 0
# Processed by: cddbd v1.5.2PL0 Copyright (c) Steve Scherf et al.
# Submitted via: AudioConverter v7.0 Copyright (c) D.R. Software
#
DISCID=7b0a910b
DTITLE=ROGER JOKELA - SOMETHING ABOUT THE OCEAN
DYEAR=2013
DGENRE=TROP-ROCK
TTITLE0=COO COO COCONUTS
TTITLE1=COLD ONE SITTING NEXT TO ME
TTITLE2=SLEEP LATE and FISH A LITTLE
TTITLE3=TOO MUCH TEQUILA
TTITLE4=TROPICAL DEPRESION
TTITLE5=FRIEND WITH A BEACH HOUSE
TTITLE6=THE DOG SONG
TTITLE7=YOU'RE THE ONLY THING I DONT LIKE ABOUT TEXAS
TTITLE8=OCCUPY A BARSTOOL
TTITLE9=FAT LADY SWINGS
TTITLE10=SOMETHING ABOUT THE OCEAN
EXTD=
EXTT0=COO COO COCONUTS
EXTT1=COLD ONE SITTING NEXT TO ME
EXTT2=SLEEP LATE and FISH A LITTLE
EXTT3=TOO MUCH TEQUILA
EXTT4=TROPICAL DEPRESION
EXTT5=FRIEND WITH A BEACH HOUSE
EXTT6=THE DOG SONG
EXTT7=YOU'RE THE ONLY THING I DONT LIKE ABOUT TEXAS
EXTT8=OCCUPY A BARSTOOL
EXTT9=FAT LADY SWINGS
EXTT10=SOMETHING ABOUT THE OCEAN
PLAYORDER=
